<?xml version="1.0" encoding="UTF-8" standalone="no"?>
<!-- Created with Inkscape (http://www.inkscape.org/) -->

<svg
   width="58.687mm"
   height="58.978001mm"
   viewBox="0 0 58.687 58.978001"
   version="1.1"
   id="svg1"
   xml:space="preserve"
   xmlns="http://www.w3.org/2000/svg"
   xmlns:svg="http://www.w3.org/2000/svg"><defs
     id="defs1" /><g
     id="layer1"><path
       style="fill:#091b3b;stroke:none;stroke-width:1"
       d="M 28.021684,0.19784652 C 20.522904,1.1795511 13.680274,3.2014105 8.2016035,8.8272667 -6.5073644,23.931417 -0.70930537,50.961383 19.819594,57.492863 c 4.29177,1.365466 8.77054,1.804038 13.22917,1.254726 C 47.360324,56.984411 59.039174,44.03143 58.679254,29.454453 58.299334,14.067771 44.583884,-1.9704135 28.021684,0.19784652 M 48.130014,45.329526 c -1.83921,-5.654306 -2.8601,-10.84797 -9.78958,-10.84797 -0.99635,0 -2.46315,-0.262231 -3.35343,0.271931 -1.8578,1.114686 -3.07508,6.224029 -5.64261,6.047068 -2.56053,-0.17648 -3.6158,-4.855562 -5.58075,-6.070748 -1.04983,-0.649243 -2.49675,-0.537852 -3.67947,-0.508952 -4.37716,0.10695 -7.11849,1.879009 -8.7139,6.081558 -0.58152,1.531837 -0.65134,3.424506 -1.6048505,4.762522 -3.0969199,-4.35822 -5.2652799,-9.388253 -5.2914599,-14.816729 -0.0224,-4.640151 0.9833,-9.221632 3.3864999,-13.229231 C 15.990344,3.4615617 35.875954,0.46270772 47.026764,12.266863 c 6.37135,6.744671 8.57631,16.603537 5.60014,25.389708 -0.88571,2.614772 -2.33816,5.888817 -4.49689,7.672955 M 28.021684,10.520525 c -2.01617,0.314891 -3.9078,0.977684 -5.55626,2.20181 -9.68837,7.194513 -3.72574,24.117842 8.73126,22.172223 2.207,-0.344702 4.3023,-1.069025 6.08541,-2.445161 9.67,-7.462885 2.96647,-23.8385413 -9.26041,-21.928872 m 0.52916,3.402856 c 11.59316,-1.670548 13.53433,16.187255 1.85209,17.570161 -11.00862,1.303166 -12.83135,-15.988084 -1.85209,-17.570161 m 12.7,37.227002 -1.5875,-5.556275 h -0.52916 c -0.42017,1.764798 0.52577,5.277014 -0.53652,6.693421 -0.71096,0.947944 -2.87321,1.221575 -3.9614,1.452967 -3.51657,0.747763 -7.05984,0.769973 -10.58333,0.0547 -1.06655,-0.216501 -2.75877,-0.413402 -3.54453,-1.243096 -1.24637,-1.316076 -0.26877,-5.193704 -0.68881,-6.958002 h -0.52917 l -1.5875,5.820857 c -1.45911,-0.610703 -3.78175,-1.653098 -4.46668,-3.185425 -0.39343,-0.880184 0.12457,-2.023909 0.32563,-2.900014 0.49847,-2.17212 0.92142,-6.304099 3.35792,-7.248723 1.22724,-0.475792 4.37794,-0.596383 5.42294,0.254381 2.27755,1.854209 3.69101,6.336449 7.26645,6.160569 3.37468,-0.166001 4.63575,-4.439521 6.95858,-6.150369 0.90335,-0.665353 2.55836,-0.501712 3.62475,-0.408712 3.08523,0.269041 3.65497,5.034284 4.34562,7.392854 0.24697,0.843424 0.89724,2.01434 0.58796,2.900014 -0.48235,1.381276 -2.64308,2.344741 -3.87525,2.920843 z"
       id="path1" /></g></svg>
