<?xml version="1.0" encoding="UTF-8" standalone="no"?>
<!-- Created with Inkscape (http://www.inkscape.org/) -->

<svg
   version="1.1"
   id="svg1"
   width="170.49899"
   height="134.30499"
   viewBox="0 0 170.49899 134.305"
   xmlns="http://www.w3.org/2000/svg"
   xmlns:svg="http://www.w3.org/2000/svg">
  <defs
     id="defs1" />
  <g
     id="g1">
    <path
       style="fill:#122b45;stroke:none"
       d="m 71.233768,97.800053 c 4.872296,14.402287 14.552796,26.577707 28.800002,32.614817 30.75769,13.03325 67.93784,-8.10672 70.3284,-42.214818 1.96982,-28.10521 -17.45618,-52.323352 -45.5284,-55.770984 -5.34634,-0.656604 -10.76402,-0.03498 -16,1.100611 -2.36107,0.512072 -6.21086,2.462854 -8.57778,1.547534 C 97.502047,34.012235 96.266807,28.206009 94.890567,25.800052 91.48964,19.854569 87.033439,14.461906 81.633768,10.214249 57.696756,-8.6158042 21.17543,-0.25168117 6.4677181,25.800052 -16.946131,67.272952 27.493463,117.18867 71.233768,97.800053 m 4.8,-40.000001 c -4.664752,-1.27277 -10.2625,-4.18621 -15.2,-2.78642 -3.584076,1.01609 -6.537018,5.60209 -10.4,5.33333 -3.944397,-0.27443 -6.508899,-4.70947 -10.4,-5.49259 -11.011908,-2.21626 -22.540662,8.13936 -26.400001,17.34568 h -1.6 C 0.57604929,42.498526 14.701315,8.6536046 49.633768,6.6747476 64.102237,5.8551306 78.857133,13.990153 86.817722,25.800052 c 2.187305,3.244971 5.829694,8.641541 5.498761,12.768518 -0.247778,3.090002 -3.771667,4.962 -5.870984,6.782712 -4.092157,3.54908 -7.265991,8.07285 -10.411731,12.44877 m -31.2,-43.554321 c -23.683927,6.099207 -13.370673,43.640521 10.4,37.343211 24.39715,-6.46327 13.765845,-43.5665264 -10.4,-37.343211 m 4.8,6.333948 c 15.881848,-0.645386 17.005609,24.063313 0.8,24.375923 -15.28277,0.29482 -15.923749,-23.761348 -0.8,-24.375923 M 157.63377,105.00005 c -5.18316,-9.768977 -14.95509,-19.609278 -27.2,-17.417288 -3.89427,0.69713 -6.53789,5.25486 -10.4,5.35494 -3.82286,0.0991 -6.63318,-4.53829 -10.4,-5.31481 C 97.941897,85.212652 86.727677,95.050493 82.433768,105.00005 68.342136,87.928532 78.308341,58.891182 94.433767,47.228442 c 20.190423,-14.602743 50.129153,-8.344503 62.837663,12.97161 3.8012,6.37579 5.9259,13.37222 5.96173,20.8 0.0389,8.06362 -0.28052,17.416381 -5.59939,23.999998 m -41.6,-58.825928 c -25.217311,4.74769 -16.999683,42.23601 8,37.76235 23.62932,-4.22844 15.70413,-42.225153 -8,-37.76235 m 0.8,7.10062 c 15.70331,-3.12307 20.59092,20.83265 4.8,24.09012 -15.15453,3.1262 -19.84189,-21.09859 -4.8,-24.09012 m -44.000002,10.92531 c -1.508178,5.64168 -3.170874,10.88943 -3.199383,16.8 -0.01385,2.87162 0.878351,7.55571 -1.283332,9.83827 -2.695257,2.845971 -8.654321,3.386141 -12.317285,3.801851 -12.128525,1.37648 -27.760679,-1.833361 -35.745063,-12.071601 -5.345172,-6.85403 3.996201,-16.66587 10.145063,-19.07346 3.672165,-1.43783 7.626086,-2.25676 11.2,-0.21173 2.839898,1.62501 6.021026,5.83351 9.6,5.36358 3.66217,-0.48085 6.323511,-4.45686 9.6,-5.93457 3.867041,-1.74404 8.357984,-0.0793 12,1.48766 m 35.200002,30.240121 c 4.48809,0.78871 7.34198,6.777157 12,6.604947 3.65077,-0.13499 6.53895,-4.309147 9.6,-5.911117 4.615,-2.415221 11.3404,0.42962 15.1679,3.29753 23.03688,17.261277 -15.96381,30.694097 -30.3679,28.625927 -8.33356,-1.19656 -22.651289,-5.42898 -26.30309,-14.0605 -3.972827,-9.3903 11.851157,-19.971777 19.90309,-18.556787 z"
       id="path1" />
  </g>
</svg>
